<?xml version="1.0" standalone="no"?>
<!DOCTYPE svg PUBLIC "-//W3C//DTD SVG 20010904//EN"
 "http://www.w3.org/TR/2001/REC-SVG-20010904/DTD/svg10.dtd">
<svg version="1.0" xmlns="http://www.w3.org/2000/svg"
 width="1024.000000pt" height="1024.000000pt" viewBox="0 0 1024.000000 1024.000000"
 preserveAspectRatio="xMidYMid meet">

<g transform="translate(0.000000,1024.000000) scale(0.100000,-0.100000)"
fill="#000000" stroke="none">
<path d="M0 5120 l0 -5120 5120 0 5120 0 0 5120 0 5120 -5120 0 -5120 0 0
-5120z m5457 1465 c121 -51 205 -182 304 -470 l38 -110 39 -7 c85 -14 144 -67
193 -173 49 -105 89 -295 89 -426 0 -56 -1 -59 -25 -59 -24 0 -25 2 -25 64 0
262 -114 526 -226 526 -13 0 -24 -1 -24 -3 0 -2 13 -61 30 -133 86 -377 132
-803 99 -915 -27 -89 -99 -107 -259 -66 -79 21 -146 47 -365 142 -6 3 -25 -54
-43 -129 -18 -73 -45 -170 -59 -215 l-26 -81 28 -97 c57 -192 126 -293 199
-293 41 0 87 47 121 124 35 79 91 261 116 376 12 58 25 108 29 112 3 4 15 5
26 2 l21 -6 -19 -86 c-28 -128 -76 -295 -113 -392 -18 -47 -49 -134 -70 -194
-103 -305 -204 -423 -326 -387 -58 18 -132 95 -174 181 l-33 71 -46 -88 c-96
-186 -217 -275 -332 -244 -126 34 -260 225 -353 506 l-39 120 -43 7 c-117 20
-207 144 -264 364 -14 53 -29 144 -33 200 l-8 104 28 0 c27 0 28 -1 28 -59 0
-188 92 -448 181 -512 25 -18 89 -43 89 -35 0 2 -13 54 -30 117 -94 365 -156
855 -121 962 26 77 95 99 226 72 88 -19 235 -66 365 -119 47 -19 88 -31 91
-28 4 4 35 101 69 217 l62 210 -22 70 c-35 113 -86 209 -129 248 -92 83 -156
52 -227 -108 -27 -61 -97 -321 -109 -407 -7 -47 -17 -56 -42 -40 -28 18 57
371 127 532 16 36 43 110 60 164 86 275 194 402 312 367 64 -20 132 -91 183
-192 l44 -89 48 92 c102 193 216 265 340 213z"/>
<path d="M5325 6522 c-59 -28 -120 -103 -177 -219 l-49 -101 64 -199 c36 -109
88 -285 117 -392 51 -191 51 -194 38 -249 l-14 -56 -19 84 c-46 210 -200 730
-216 730 -4 0 -36 -89 -72 -198 l-66 -198 16 -59 c8 -33 39 -161 67 -285 l52
-225 99 -52 c55 -29 105 -52 110 -52 6 -1 22 50 38 113 93 383 255 705 402
796 l34 21 -40 117 c-116 340 -249 486 -384 424z"/>
<path d="M4731 6465 c-43 -39 -96 -134 -134 -241 l-25 -71 46 4 c35 3 58 -1
92 -19 73 -37 111 -98 185 -293 5 -15 17 8 46 95 22 63 53 149 70 191 l30 76
-40 84 c-94 199 -180 255 -270 174z"/>
<path d="M5707 5879 c-116 -95 -255 -389 -338 -709 -16 -63 -32 -123 -35 -132
-4 -13 8 -24 45 -42 140 -71 369 -146 448 -146 22 0 38 8 52 26 40 50 26 352
-30 649 -37 200 -82 385 -93 385 -6 0 -28 -14 -49 -31z"/>
<path d="M4890 5607 c0 -7 -22 -84 -49 -171 l-49 -158 77 -35 c42 -19 90 -41
107 -48 l32 -13 -13 56 c-65 280 -91 382 -97 382 -5 0 -8 -6 -8 -13z"/>
<path d="M4153 5400 c-36 -14 -43 -43 -43 -164 0 -186 40 -455 111 -746 22
-90 42 -168 45 -171 8 -14 45 4 89 43 56 49 110 139 169 280 62 149 206 592
195 602 -11 9 -215 87 -289 111 -80 25 -217 56 -243 54 -7 0 -22 -4 -34 -9z"/>
<path d="M4765 5188 c-4 -18 -47 -154 -96 -302 -130 -394 -220 -561 -333 -618
-22 -11 -42 -22 -44 -23 -7 -7 84 -246 123 -325 77 -153 175 -250 252 -250 86
0 178 90 253 244 l49 101 -54 160 c-56 164 -186 656 -184 697 1 22 1 22 8 -2
7 -25 7 -25 13 -2 3 12 4 32 0 44 -5 21 -6 21 -13 2 -5 -12 -8 -14 -8 -4 0 8
6 29 14 45 l13 30 1 -26 c2 -45 148 -613 190 -738 46 -136 46 -135 26 -127
-16 6 -18 -7 -7 -37 10 -23 42 59 117 298 51 163 55 183 46 221 -6 22 -33 151
-61 285 -28 134 -54 246 -58 249 -8 7 -229 110 -236 110 -2 0 -8 -15 -11 -32z"/>
<path d="M5085 5058 c33 -142 82 -404 78 -417 -4 -14 -3 -14 6 1 15 22 100
331 94 341 -2 4 -45 28 -94 53 -84 42 -89 43 -84 22z"/>
<path d="M5132 4308 c-18 -60 -48 -152 -68 -205 l-35 -94 36 -72 c65 -127 127
-187 195 -187 59 0 134 102 196 268 13 34 24 63 24 65 0 1 -24 1 -52 -1 -46
-3 -59 1 -95 27 -51 37 -94 108 -129 216 -15 44 -29 83 -33 87 -3 4 -21 -43
-39 -104z"/>
<path d="M5519 4113 c-13 -16 -12 -17 4 -4 9 7 17 15 17 17 0 8 -8 3 -21 -13z"/>
</g>
</svg>
